<svg width="80" height="80" viewBox="0 0 80 80" fill="none" xmlns="http://www.w3.org/2000/svg">
<circle cx="40" cy="40" r="40" fill="white"/>
<path d="M28.7454 57.9783C28.3758 57.8696 28.0063 57.7826 27.6584 57.6304C26.3106 57.0217 25.5498 56 25.5715 54.4783C25.5715 46.174 25.5715 37.8698 25.5715 29.5873C25.5715 27.5221 27.1802 25.8699 29.2671 25.8265C30.3541 25.8047 31.4627 25.8265 32.6149 25.8265C32.6149 25.4134 32.6149 25.0004 32.6149 24.6091C32.6149 23.9352 32.854 23.6743 33.5497 23.6526C34.3105 23.6308 35.0931 23.6308 35.854 23.6526C36.0496 23.6526 36.1583 23.6091 36.2453 23.4134C37.0062 21.8048 38.2887 20.9787 40.0496 21.0004C41.8104 21.0222 43.1583 21.7395 43.8974 23.4134C43.9409 23.5221 44.1148 23.6308 44.2452 23.6308C44.9626 23.6526 45.68 23.6308 46.4191 23.6526C46.6147 23.6526 46.8321 23.6743 47.0278 23.7178C47.4408 23.8265 47.593 24.0439 47.6147 24.4786C47.6147 24.9134 47.6147 25.3699 47.6147 25.8482C48.0495 25.8482 48.4408 25.8482 48.8321 25.8482C49.7234 25.8699 50.6364 25.8047 51.5277 25.9351C53.2886 26.1525 54.6364 27.7395 54.6364 29.5003C54.6364 37.8915 54.6364 46.261 54.6364 54.6522C54.6364 56.2826 53.419 57.6087 51.7234 57.9348C51.6364 57.9565 51.5495 57.9783 51.4625 58C43.8756 57.9783 36.3105 57.9783 28.7454 57.9783ZM32.5932 27.6308C32.5062 27.609 32.4845 27.5873 32.4627 27.5873C31.4845 27.5873 30.4845 27.5873 29.5062 27.5873C28.1149 27.5873 27.3106 28.3916 27.3106 29.7829C27.3106 37.9567 27.3106 46.1306 27.3106 54.3261C27.3106 54.4131 27.3106 54.5218 27.3106 54.6087C27.3323 55.1522 27.5715 55.5435 28.0063 55.8478C28.441 56.1305 28.8976 56.2392 29.4193 56.2392C36.5279 56.2392 43.6583 56.2392 50.7669 56.2392C50.9625 56.2392 51.1799 56.2174 51.3756 56.1957C52.3321 56.0435 52.8755 55.3913 52.8755 54.4348C52.8755 46.1958 52.8755 37.9567 52.8755 29.7177C52.8755 28.4569 52.0712 27.6308 50.8103 27.609C50.0712 27.609 49.3321 27.609 48.6147 27.609C48.2886 27.609 47.9625 27.609 47.6582 27.609C47.6147 27.6743 47.593 27.696 47.593 27.7177C47.593 28.3264 47.593 28.9134 47.5713 29.5221C47.5713 30.3481 47.2234 30.696 46.4191 30.696C42.18 30.696 37.9409 30.696 33.7018 30.696C32.9192 30.696 32.5932 30.3699 32.5932 29.5655C32.5932 28.9134 32.5932 28.2612 32.5932 27.6308ZM45.8104 25.3917C45.0495 25.3917 44.3322 25.3917 43.6148 25.3917C42.8756 25.3917 42.6148 25.196 42.3974 24.4786C42.0713 23.3265 41.0061 22.5439 39.8539 22.6308C38.8105 22.7178 37.9409 23.4569 37.6366 24.5656C37.4627 25.1743 37.1583 25.3917 36.5496 25.3917C36.3105 25.3917 36.0931 25.3917 35.854 25.3917C35.3757 25.3917 34.8757 25.3917 34.3975 25.3917C34.3975 26.5873 34.3975 27.7395 34.3975 28.8916C38.2018 28.8916 42.0061 28.8916 45.7887 28.8916C45.8104 27.7177 45.8104 26.5656 45.8104 25.3917Z" fill="#0F87CA"/>
<path d="M44.267 35.5003C45.9191 35.5003 47.5713 35.5003 49.2234 35.5003C49.7234 35.5003 50.0713 35.7394 50.2017 36.1524C50.3321 36.6307 50.0278 37.1524 49.5278 37.2394C49.3756 37.2611 49.2234 37.2611 49.0713 37.2611C45.8974 37.2611 42.7235 37.2611 39.5496 37.2611C39.4192 37.2611 39.2888 37.2611 39.1583 37.2394C38.6801 37.1742 38.3757 36.8263 38.3757 36.3698C38.3757 35.9133 38.7018 35.5437 39.1801 35.5003C39.4844 35.4785 39.8105 35.5003 40.1148 35.5003C41.4844 35.5003 42.8757 35.5003 44.267 35.5003Z" fill="#0F87CA"/>
<path d="M44.3105 49.6088C45.9191 49.6088 47.5061 49.6088 49.1148 49.6088C49.2887 49.6088 49.4843 49.6306 49.6365 49.674C50.006 49.7827 50.2234 50.1523 50.2234 50.5436C50.2017 50.9349 49.9408 51.261 49.5713 51.3479C49.4191 51.3914 49.2669 51.3914 49.1148 51.3914C45.9191 51.3914 42.7235 51.3914 39.5062 51.3914C39.354 51.3914 39.2236 51.3914 39.0714 51.3697C38.6583 51.2827 38.3757 50.9566 38.354 50.5436C38.354 50.1088 38.5931 49.7827 39.0062 49.674C39.1583 49.6306 39.3105 49.6306 39.4627 49.6306C41.0714 49.6088 42.7018 49.6088 44.3105 49.6088Z" fill="#0F87CA"/>
<path d="M44.2887 42.5654C45.9408 42.5654 47.593 42.5654 49.2451 42.5654C49.7886 42.5654 50.1364 42.848 50.2234 43.2827C50.3103 43.8045 49.9408 44.261 49.3973 44.3045C49.2016 44.3262 49.006 44.3045 48.8104 44.3045C45.6582 44.3045 42.5061 44.3045 39.3539 44.3045C38.7452 44.3045 38.3539 43.9784 38.3322 43.4784C38.3105 42.9349 38.68 42.5654 39.267 42.5654C40.4409 42.5654 41.6148 42.5654 42.8104 42.5654C43.3104 42.5654 43.7887 42.5654 44.2887 42.5654Z" fill="#0F87CA"/>
<path d="M32.68 43.2828C33.5496 42.4567 34.4191 41.6089 35.3104 40.7828C35.4626 40.6307 35.68 40.5002 35.8756 40.435C36.2669 40.3263 36.6582 40.5437 36.8539 40.8915C37.0495 41.2394 37.006 41.6089 36.6582 41.935C35.68 42.8915 34.68 43.8263 33.68 44.7611C33.5278 44.9132 33.3756 45.0654 33.2017 45.1958C32.8322 45.5002 32.3757 45.5002 32.0278 45.1524C31.4191 44.5437 30.8105 43.9132 30.2235 43.2828C29.8757 42.9132 29.8757 42.348 30.2235 42.022C30.5713 41.6741 31.0931 41.7176 31.4844 42.1089C31.68 42.3046 31.8757 42.5002 32.0713 42.6959C32.267 42.8915 32.4626 43.0654 32.68 43.2828Z" fill="#0F87CA"/>
<path d="M32.6802 36.2394C33.5715 35.3916 34.4845 34.522 35.3758 33.6742C35.7454 33.3264 36.1149 33.2612 36.4845 33.4786C37.028 33.7829 37.1367 34.4133 36.7019 34.8481C35.5497 35.9785 34.3758 37.0872 33.2019 38.1742C32.8324 38.5003 32.3976 38.4785 32.028 38.1307C31.4411 37.5437 30.8324 36.9351 30.2672 36.3264C29.8759 35.9133 29.8759 35.3481 30.2237 35.0003C30.5715 34.6742 31.115 34.7177 31.5063 35.109C31.8758 35.4785 32.2237 35.8481 32.5932 36.2177C32.615 36.2177 32.6367 36.2177 32.6802 36.2394Z" fill="#0F87CA"/>
<path d="M32.7018 50.3044C33.5714 49.4783 34.4844 48.6088 35.3757 47.761C35.767 47.3914 36.2018 47.3479 36.5713 47.6523C37.0061 48.0001 37.0931 48.5436 36.68 48.9349C35.5279 50.0653 34.354 51.174 33.1801 52.2609C32.8105 52.6087 32.354 52.5653 31.9844 52.1957C31.3975 51.6087 30.8105 51.0218 30.2453 50.4131C29.854 50.0001 29.8323 49.4349 30.2019 49.087C30.5497 48.7392 31.0931 48.8044 31.5062 49.2175C31.9192 49.5653 32.2888 49.9131 32.7018 50.3044Z" fill="#0F87CA"/>
</svg>
