<svg width="202" height="48" viewBox="0 0 202 48" fill="none" xmlns="http://www.w3.org/2000/svg">
<g clip-path="url(#clip0_51_3696)">
<path d="M62.5755 21.0984H56.0975V29.9156H62.7104C65.9044 29.9156 67.7489 28.3861 67.7489 25.597C67.7938 22.7629 65.7695 21.0984 62.5755 21.0984ZM62.1256 7.82753H56.1425V16.015H62.1256C65.2296 16.015 66.9841 14.6204 66.9841 11.9213C66.9841 9.35706 65.2296 7.82753 62.1256 7.82753ZM63.6551 35.224H49.5745V2.56418H63.0703C69.9082 2.56418 73.687 6.11807 73.687 10.9766C73.687 14.9353 71.3027 17.4545 68.1087 18.4892C71.7976 19.164 74.4518 22.5829 74.4518 26.4067C74.4518 31.5801 70.448 35.224 63.6551 35.224Z" fill="white"/>
<path d="M102.523 35.224H95.91V31.94C94.2905 34.1443 91.4114 35.5389 88.1725 35.5389C82.1443 35.5389 77.7807 31.6251 77.7807 24.4723V9.31207H84.3487V23.6176C84.3487 27.8013 86.6429 30.0506 90.1069 30.0506C93.6607 30.0506 95.91 27.8013 95.91 23.6176V9.31207H102.523V35.224Z" fill="white"/>
<path d="M119.213 14.6204C115.704 14.6204 112.375 17.2296 112.375 22.1781C112.375 27.0815 115.704 29.9156 119.213 29.9156C122.812 29.9156 126.096 27.2165 126.096 22.268C126.096 17.3646 122.812 14.6204 119.213 14.6204ZM117.503 8.86221C121.597 8.86221 124.521 10.7516 126.096 13.0009V9.31207H132.709V35.4489C132.709 42.4667 128.39 48.045 119.888 48.045C112.6 48.045 107.471 44.4011 106.842 38.463H113.365C114.039 40.8022 116.469 42.3317 119.753 42.3317C123.351 42.3317 126.186 40.2624 126.186 35.4489V31.4002C124.656 33.6495 121.687 35.6738 117.593 35.6738C110.98 35.6738 105.762 30.2755 105.762 22.1781C105.672 14.0806 110.935 8.86221 117.503 8.86221Z" fill="white"/>
<path d="M142.471 19.8388H154.797C154.707 16.4199 152.008 14.2605 148.634 14.2605C145.485 14.2605 143.01 16.2849 142.471 19.8388ZM148.814 35.6738C141.256 35.6738 135.813 30.4105 135.813 22.268C135.813 14.0806 141.166 8.86221 148.814 8.86221C156.326 8.86221 161.59 13.9456 161.59 21.6832C161.59 22.5379 161.545 23.3477 161.41 24.2024H142.426C142.74 28.0262 145.395 30.1855 148.634 30.1855C151.423 30.1855 152.997 28.791 153.852 27.0365H160.915C159.52 31.85 155.202 35.6738 148.814 35.6738Z" fill="white"/>
<path d="M171.307 0.584808H164.739V35.224H171.307V0.584808Z" fill="white"/>
<path d="M187.636 29.9606C191.1 29.9606 194.429 27.4414 194.429 22.268C194.429 17.0497 191.19 14.5754 187.726 14.5754C184.262 14.5754 181.113 17.0497 181.113 22.268C181.113 27.3964 184.127 29.9606 187.636 29.9606ZM187.636 35.6738C180.124 35.6738 174.456 30.4105 174.456 22.268C174.456 14.0806 180.304 8.86221 187.816 8.86221C195.329 8.86221 201.177 14.0806 201.177 22.268C201.177 30.4105 195.149 35.6738 187.636 35.6738Z" fill="white"/>
<path d="M32.7948 0H10.9316L0 18.9391L5.66823 28.5211L16.105 28.2512L10.7516 18.9391L16.2849 9.31209H27.3964L32.9747 18.9391L27.3964 28.5211H16.6448L22.0431 37.8332H32.7948L43.7263 18.9391L32.7948 0Z" fill="white"/>
<path d="M27.3965 28.5211H16.2849L16.105 28.2512L10.7516 18.9391H21.8632L27.3965 28.5211Z" fill="white"/>
<path d="M27.3964 28.5211H16.4199L21.7732 37.8332H32.7498L27.3964 28.5211ZM10.7516 18.9391H0L5.66823 28.5661H16.4199L10.7516 18.9391Z" fill="white"/>
</g>
<defs>
<clipPath id="clip0_51_3696">
<rect width="201.177" height="48" fill="white"/>
</clipPath>
</defs>
</svg>
