<svg width="24" height="20" viewBox="0 0 24 20" fill="none" xmlns="http://www.w3.org/2000/svg">
<path d="M21.8908 0.859375H2.10953C1.78483 0.859375 1.48084 0.939203 1.20583 1.07078L11.9533 11.8182L14.3621 9.50322L22.7948 1.07097C22.5198 0.939297 22.2156 0.859375 21.8908 0.859375Z" fill="#0C2F93"/>
<path d="M23.789 2.06535L15.8538 10.0001L23.7887 17.9349C23.9202 17.6599 24.0001 17.3559 24.0001 17.0312V2.96872C24.0001 2.64421 23.9204 2.34027 23.789 2.06535Z" fill="#0C2F93"/>
<path d="M0.211406 2.0652C0.0798281 2.34022 0 2.6442 0 2.96891V17.0314C0 17.3559 0.0797344 17.66 0.211219 17.9349L8.14636 10.0002L0.211406 2.0652Z" fill="#0C2F93"/>
<path d="M14.8596 10.9944L12.4504 13.3097C12.3131 13.4471 12.1332 13.5157 11.9533 13.5157C11.7735 13.5157 11.5935 13.4471 11.4562 13.3097L9.14078 10.9943L1.20549 18.9291C1.48056 19.0608 1.78473 19.1407 2.10953 19.1407H21.8908C22.2155 19.1407 22.5195 19.0609 22.7945 18.9293L14.8596 10.9944Z" fill="#0C2F93"/>
</svg>
