<svg width="80" height="80" viewBox="0 0 80 80" fill="none" xmlns="http://www.w3.org/2000/svg">
<circle cx="40" cy="40" r="40" fill="white"/>
<path d="M54.704 19.828C55.6354 20.1711 55.954 20.8574 55.9295 21.8133C55.905 24.2153 55.9295 26.6173 55.9295 29.0193C55.9295 29.9016 55.5128 30.5144 54.802 30.7105C53.7971 31.0046 52.8167 30.2938 52.7922 29.2154C52.7677 28.0634 52.7922 26.8869 52.7922 25.7349C52.7922 25.5879 52.7922 25.4408 52.7922 25.1957C52.6207 25.3673 52.4981 25.4408 52.4001 25.5634C49.2138 28.7497 46.0274 31.936 42.8411 35.1223C41.8607 36.1027 41.0764 36.1027 40.096 35.0978C38.3803 33.3821 36.6401 31.6419 34.9244 29.9262C34.8263 29.8281 34.7528 29.7056 34.6057 29.534C34.4587 29.7301 34.3606 29.8526 34.2626 29.9752C31.7381 32.4997 29.189 35.0488 26.6645 37.5733C26.2723 37.9655 25.8066 38.2106 25.2429 38.137C24.6301 38.0635 24.2135 37.7204 23.9929 37.1566C23.7723 36.5929 23.8703 36.0782 24.238 35.6125C24.336 35.49 24.4341 35.3919 24.5321 35.2939C27.4733 32.3527 30.4145 29.4114 33.3557 26.4702C34.2381 25.5879 35.0714 25.5879 35.9293 26.4702C37.694 28.235 39.4342 29.9752 41.199 31.7399C41.297 31.8379 41.3705 31.9605 41.4441 32.0585C44.5078 28.9948 47.498 26.0045 50.5128 22.9898C50.4393 22.9898 50.3412 22.9653 50.2187 22.9653C49.0912 22.9653 47.9392 22.9653 46.8118 22.9653C45.8559 22.9653 45.2431 22.5241 45.0715 21.7153C44.9 20.931 45.3166 20.2692 46.1745 19.877C46.199 19.877 46.199 19.828 46.2235 19.828C49.0177 19.828 51.8608 19.828 54.704 19.828Z" fill="#0F87CA"/>
<path d="M19.8262 48.8479C20.1448 47.9165 20.8066 47.5734 21.787 47.5734C24.287 47.5979 26.787 47.5734 29.2626 47.5734C30.4145 47.5734 31.0273 48.2106 31.0273 49.3381C31.0273 52.2793 31.0273 55.245 31.0273 58.1862C31.0273 59.3137 30.39 59.951 29.2626 59.951C26.7625 59.951 24.2625 59.9264 21.787 59.951C20.8066 59.9755 20.1448 59.6323 19.8262 58.6764C19.8262 55.4411 19.8262 52.1322 19.8262 48.8479ZM22.988 50.7352C22.988 52.7695 22.988 54.8038 22.988 56.7892C24.6301 56.7892 26.2478 56.7892 27.8655 56.7892C27.8655 54.7548 27.8655 52.745 27.8655 50.7352C26.2478 50.7352 24.6301 50.7352 22.988 50.7352Z" fill="#0F87CA"/>
<path d="M59.9736 47.8185C59.9736 51.2744 59.9736 54.7303 59.9736 58.2107C59.9736 59.3872 59.3608 60 58.1843 60C55.6353 60 53.0862 60 50.5372 60C49.3852 60 48.7725 59.3872 48.7725 58.2352C48.7725 51.2989 48.7725 44.3625 48.7725 37.4262C48.7725 36.2987 49.4097 35.686 50.5372 35.686C53.0862 35.686 55.6598 35.686 58.2088 35.686C59.3608 35.686 59.9736 36.2987 59.9736 37.4507C59.9736 40.8821 59.9736 44.338 59.9736 47.8185ZM51.9097 38.8233C51.9097 44.8527 51.9097 50.8332 51.9097 56.8137C53.5519 56.8137 55.1696 56.8137 56.7873 56.8137C56.7873 50.8087 56.7873 44.8282 56.7873 38.8233C55.1696 38.8233 53.5519 38.8233 51.9097 38.8233Z" fill="#0F87CA"/>
<path d="M45.4881 50.8088C45.4881 53.2598 45.4881 55.6863 45.4881 58.1373C45.4881 59.3873 44.8999 59.9755 43.6499 59.9755C41.1498 59.9755 38.6253 59.9755 36.1253 59.9755C34.8998 59.9755 34.3115 59.3873 34.3115 58.1863C34.3115 53.2598 34.3115 48.3333 34.3115 43.4067C34.3115 42.2302 34.9243 41.6175 36.1008 41.6175C38.6498 41.6175 41.1989 41.6175 43.7479 41.6175C44.8999 41.6175 45.5126 42.2302 45.5126 43.3822C45.4881 45.8577 45.4881 48.3333 45.4881 50.8088ZM42.3263 56.8137C42.3263 52.7941 42.3263 48.7744 42.3263 44.7793C40.6841 44.7793 39.0665 44.7793 37.4488 44.7793C37.4488 48.7989 37.4488 52.7941 37.4488 56.8137C39.091 56.8137 40.6841 56.8137 42.3263 56.8137Z" fill="#0F87CA"/>
</svg>
