<svg width="80" height="80" viewBox="0 0 80 80" fill="none" xmlns="http://www.w3.org/2000/svg">
<circle cx="40" cy="40" r="40" fill="white"/>
<path d="M55.7504 54H26.2496C22.8056 54 20 51.1453 20 47.641V32.359C20 28.8547 22.8056 26 26.2496 26H55.7504C59.1944 26 62 28.8547 62 32.359V47.641C62 51.1453 59.1944 54 55.7504 54Z" fill="#0F87CA"/>
<path d="M44.9256 37.15L43.2455 36.1852L39.0703 33.7733C38.0389 33.1744 36.7415 33.923 36.7415 35.1206V39.928V42.839C41.4324 42.4731 43.7612 39.7117 44.9256 37.15Z" fill="#F4F4F4"/>
<path d="M47.4207 38.5806L45.6907 37.5825C44.543 40.061 42.0145 43.3214 36.7581 43.704V44.7353C36.7581 45.933 38.0555 46.6815 39.0869 46.0827L43.2621 43.6707L47.4373 41.2587C48.452 40.6765 48.452 39.1794 47.4207 38.5806Z" fill="#F4F4F4"/>
<path d="M44.2769 35.8858L46.6057 34.5051C46.822 34.2556 47.2212 34.4053 47.2212 34.738L47.1214 37.3829C47.1214 37.6158 46.8719 37.7655 46.6556 37.649L44.3434 36.3682C44.1937 36.2684 44.1438 36.0355 44.2769 35.8858Z" fill="#F4F4F4"/>
</svg>
